<svg width="953" height="283" viewBox="0 0 953 283" fill="none" xmlns="http://www.w3.org/2000/svg">
<path d="M951.776 24.3695C953.052 29.5568 951.125 35.493 946.081 42.0955C941.043 48.6908 932.954 55.8705 922.089 63.5009C900.364 78.7584 867.644 95.7469 826.358 113.417C743.792 148.753 627.053 186.776 495.713 219.105C364.373 251.435 243.323 271.943 153.789 278.969C109.018 282.482 72.1508 282.623 45.8258 279.193C32.6606 277.477 22.1629 274.873 14.639 271.369C7.10688 267.862 2.64416 263.499 1.36732 258.312C0.0904714 253.125 2.01799 247.188 7.06166 240.586C12.0999 233.991 20.1891 226.811 31.0539 219.181C52.779 203.923 85.4986 186.935 126.785 169.265C209.351 133.929 326.09 95.9055 457.43 63.5762C588.77 31.2469 709.82 10.7385 799.354 3.71242C844.125 0.199064 880.992 0.0589412 907.317 3.48895C920.482 5.20431 930.98 7.80887 938.504 11.312C946.036 14.819 950.499 19.1822 951.776 24.3695Z" stroke="#A99B91"/>
</svg>
