<svg width="46" height="70" viewBox="0 0 46 70" fill="none" xmlns="http://www.w3.org/2000/svg">
<path d="M45.7847 34.8145C45.7847 38.6334 45.7179 42.4523 45.807 46.2488C46.0076 56.0656 38.8751 66.8934 26.6384 68.7579C11.4372 71.0717 1.00585 59.57 0.314886 48.4727C-0.130896 41.3291 0.0474183 34.1181 0.00283999 26.952C-0.0194491 25.0875 0.0919979 23.223 0.248022 21.3584C1.25103 10.2162 10.0552 1.45516 21.3113 0.601519C32.1438 -0.229657 42.3299 6.84656 45.116 17.8316C45.5841 19.6961 45.7179 21.6729 45.7624 23.6049C45.8739 27.3339 45.7847 31.063 45.7847 34.8145ZM44.5365 34.7022C44.5365 30.8833 44.6257 27.0643 44.492 23.2679C44.4251 21.336 44.2022 19.3816 43.7118 17.5171C41.5052 9.07052 32.701 0.534126 20.1522 1.9943C10.657 3.09504 1.96428 11.609 1.56308 21.1563C1.20645 29.9622 1.29561 38.7907 1.47392 47.5966C1.69682 58.0874 11.4372 69.4094 25.6799 67.6572C38.3401 66.1071 44.7817 55.0547 44.5365 46.3611C44.4474 42.4748 44.5365 38.5885 44.5365 34.7022Z" fill="#A99B91"/>
<path d="M23.0449 9.67188C23.6233 10.3005 24.046 10.6149 24.224 11.0415C27.65 19.0568 31.0537 27.0947 34.4575 35.1325C34.502 35.2672 34.4575 35.4244 34.4575 35.7836C33.968 35.6714 33.4786 35.6265 33.0782 35.4244C30.3863 34.1222 27.6277 34.1222 24.8691 35.0652C22.4887 35.8735 20.1528 36.8389 17.7724 37.6247C16.5933 38.0288 15.3475 38.2983 14.1239 38.5228C12.3442 38.8371 11.8548 39.2188 11.5656 40.768C11.2986 42.2049 11.5433 42.6315 13.0783 43.5745C13.3008 43.7092 13.501 43.9337 13.7457 44.1358C12.1885 45.0563 8.38427 45.0788 6.80475 44.2256C6.91598 44.046 6.96047 43.7317 7.1162 43.6868C9.09616 43.0132 9.85255 41.3293 10.5644 39.5556C14.2352 30.5074 17.9281 21.4592 21.6211 12.411C21.977 11.5578 22.4665 10.7496 23.0449 9.67188ZM22.511 14.3419C22.155 14.7685 21.977 14.9032 21.888 15.0828C19.0627 21.9532 16.2596 28.846 13.4788 35.7387C13.3008 36.1653 13.3898 36.6817 13.3453 37.5125C14.8136 37.1532 16.0149 36.8838 17.194 36.547C21.4876 35.2897 25.4253 32.82 30.5643 33.1792C27.8502 26.6681 25.2473 20.5836 22.511 14.3419Z" fill="#A99B91"/>
<path d="M22.2288 58.9406C22.7381 58.3651 23.2474 57.7675 23.7788 57.2141C25.8161 55.1777 27.8976 53.2077 29.8684 51.1049C31.0199 49.8875 32.0828 48.5373 32.9464 47.0985C34.0979 45.1506 34.1643 43.0257 33.1014 40.9671C31.8171 38.488 29.1598 37.5584 26.7461 38.9307C25.3068 39.7497 24.111 40.9893 22.5831 42.2067C22.7381 41.6976 22.7602 41.2992 22.9374 41.0336C24.6867 38.5323 26.879 36.9165 30.112 37.0936C34.6736 37.3592 37.4859 41.8968 35.4708 46.0139C34.7179 47.5633 33.5443 48.98 32.3485 50.2417C30.577 52.1231 28.6283 53.8054 26.7461 55.5761C26.2368 56.0631 25.7718 56.5722 24.9303 57.4355C27.9197 57.4355 30.422 57.6568 32.8578 57.3469C33.9872 57.192 34.9836 55.9967 36.1573 55.1777C36.5559 56.4394 35.9801 57.5904 35.5815 58.6972C35.4487 59.0513 34.7843 59.4276 34.3636 59.4276C30.3999 59.494 26.4361 59.4497 22.4723 59.4497C22.4502 59.3391 22.3395 59.1399 22.2288 58.9406Z" fill="#A99B91"/>
</svg>
