<svg width="1330" height="218" viewBox="0 0 1330 218" fill="none" xmlns="http://www.w3.org/2000/svg">
<path d="M1328.63 198.137C1328.37 200.072 1327.05 201.911 1324.56 203.639C1322.08 205.365 1318.48 206.936 1313.81 208.342C1304.48 211.153 1290.95 213.268 1273.66 214.698C1239.08 217.557 1189.57 217.665 1128.73 215.167C1007.05 210.172 840.076 194.755 656.664 170.098C473.251 145.442 308.137 116.217 189.454 88.8995C130.11 75.2402 82.3896 62.0614 49.7985 50.1737C33.4991 44.2284 21.009 38.6149 12.7452 33.4379C8.61179 30.8485 5.56219 28.3843 3.62121 26.0632C1.67903 23.7406 0.891547 21.6176 1.15166 19.6827C1.41177 17.7478 2.73196 15.9081 5.21856 14.1809C7.70361 12.4548 11.2957 10.8835 15.9663 9.47751C25.3038 6.6667 38.8329 4.55104 56.1238 3.12134C90.6972 0.262612 140.204 0.154127 201.049 2.65203C322.732 7.6476 489.702 23.065 673.115 47.7213C856.528 72.3777 1021.64 101.603 1140.32 128.92C1199.67 142.579 1247.39 155.758 1279.98 167.646C1296.28 173.591 1308.77 179.205 1317.03 184.382C1321.17 186.971 1324.22 189.435 1326.16 191.756C1328.1 194.079 1328.89 196.202 1328.63 198.137Z" stroke="#A99B91"/>
</svg>
